<svg xmlns="http://www.w3.org/2000/svg" viewBox="0 0 336.88 352"><defs><style>.cls-1{fill:#03045e;}.cls-2,.cls-3,.cls-4{fill:#fff;}.cls-3,.cls-4{stroke:#2e3192;stroke-miterlimit:10;}.cls-3{stroke-width:3px;}.cls-4{stroke-width:4px;}</style></defs><g id="Layer_2" data-name="Layer 2"><g id="Layer_1-2" data-name="Layer 1"><rect class="cls-1" width="336.88" height="352" rx="10"/><rect class="cls-2" x="4.79" y="5" width="327.31" height="342" rx="10"/><rect x="12.44" y="13" width="312" height="326" rx="10"/><path class="cls-3" d="M313.44,37.62a57.19,57.19,0,0,0-9.75,14.06l-100.16-.06L192.62,80.08c-5.67-.78-11.64-1.42-17.86-1.9L185,51.61,69.44,51.55c1.11-4.52,8.84-9.36,13.48-14Z"/><polygon class="cls-3" points="123.24 260.89 122.86 261.89 108.37 299.66 108.19 300.12 108.02 300.58 106.09 305.6 105.71 306.6 101.14 318.5 82.56 318.5 87.13 306.6 87.51 305.6 89.44 300.58 89.61 300.12 89.79 299.66 105.29 259.28 105.45 258.82 105.63 258.36 113.91 236.79 114.41 235.48 114.91 234.18 114.91 260.89 123.24 260.89"/><path class="cls-3" d="M192.61,80.08l-.16.43-.18.46L176.6,121.82l-.22.58,0,.12-.18.46,0,0a19.24,19.24,0,0,0-5.23-6.18,21.42,21.42,0,0,0-3.19-2,30.89,30.89,0,0,0-6.1-2.39l.18-.48.18-.46,12.44-32.41.18-.47.16-.43C181,78.66,187,79.3,192.61,80.08Z"/><path class="cls-1" d="M233,201.62q-10.1-13.58-29-18.55,16.72-6.28,25.33-19.54t8.61-31.95q0-32.46-24.26-49.51a77.55,77.55,0,0,0-18.24-9.33h0a110.82,110.82,0,0,0-16.82-4.6A184.59,184.59,0,0,0,142.89,65H56.29V306.1h97.86q44-.33,66.48-18.13t22.43-53.23Q243.06,215.2,233,201.62ZM114.41,261.39V203.61h12.22l.19-.5,12.43-32.38.18-.46.17-.46,1.45-3.79.2-.5H114.41v-55.8h28.48a68.47,68.47,0,0,1,18.9,2.23,27.94,27.94,0,0,1,9.41,4.5,19.8,19.8,0,0,1,5.18,6q3.6,6.27,3.6,16,0,13.29-8.12,20.1a27.62,27.62,0,0,1-11.38,5.28l-.21.54-1.84,4.8-.18.49-.18.47-12.67,33-.19.5h9.93q30,.16,30,30.3,0,13.08-8.44,20.28t-24.18,7.2Z"/><path class="cls-2" d="M176.6,121.82a20,20,0,0,0-5.09-5.77,23.68,23.68,0,0,0-3.54-2.22,32.9,32.9,0,0,0-6-2.34,51,51,0,0,0-6.5-1.4,82.91,82.91,0,0,0-12.58-.87H114.41a.5.5,0,0,0-.5.5v55.8a.5.5,0,0,0,.5.5h26.64l.2-.5.19-.5H114.91v-54.8h28a82.35,82.35,0,0,1,12.34.84,49.18,49.18,0,0,1,6.38,1.37,30.89,30.89,0,0,1,6.1,2.39,21.42,21.42,0,0,1,3.19,2,19.24,19.24,0,0,1,5.23,6.18c2.23,4.06,3.35,9.22,3.35,15.43,0,8.66-2.67,15.3-7.94,19.71a26.69,26.69,0,0,1-10.84,5.09l-.22.58-.21.54a28.31,28.31,0,0,0,11.92-5.44c5.5-4.62,8.29-11.51,8.29-20.48C180.48,131.7,179.18,126.13,176.6,121.82Zm-21.46,81.29H145.4l-.38,1h10.12c19.83.11,29.47,9.85,29.47,29.8,0,8.52-2.78,15.22-8.27,19.9s-13.53,7.08-23.85,7.08H114.91V204.11h11.53l.38-1H114.41a.5.5,0,0,0-.5.5v57.78a.5.5,0,0,0,.5.5h38.08c10.56,0,18.8-2.46,24.5-7.32s8.62-11.83,8.62-20.66C185.61,213.58,175.36,203.22,155.14,203.11Zm0,0H145.4l-.38,1h10.12c19.83.11,29.47,9.85,29.47,29.8,0,8.52-2.78,15.22-8.27,19.9s-13.53,7.08-23.85,7.08H114.91V204.11h11.53l.38-1H114.41a.5.5,0,0,0-.5.5v57.78a.5.5,0,0,0,.5.5h38.08c10.56,0,18.8-2.46,24.5-7.32s8.62-11.83,8.62-20.66C185.61,213.58,175.36,203.22,155.14,203.11Zm21.46-81.29a20,20,0,0,0-5.09-5.77,23.68,23.68,0,0,0-3.54-2.22,32.9,32.9,0,0,0-6-2.34,51,51,0,0,0-6.5-1.4,82.91,82.91,0,0,0-12.58-.87H114.41a.5.5,0,0,0-.5.5v55.8a.5.5,0,0,0,.5.5h26.64l.2-.5.19-.5H114.91v-54.8h28a82.35,82.35,0,0,1,12.34.84,49.18,49.18,0,0,1,6.38,1.37,30.89,30.89,0,0,1,6.1,2.39,21.42,21.42,0,0,1,3.19,2,19.24,19.24,0,0,1,5.23,6.18c2.23,4.06,3.35,9.22,3.35,15.43,0,8.66-2.67,15.3-7.94,19.71a26.69,26.69,0,0,1-10.84,5.09l-.22.58-.21.54a28.31,28.31,0,0,0,11.92-5.44c5.5-4.62,8.29-11.51,8.29-20.48C180.48,131.7,179.18,126.13,176.6,121.82Zm0,0a20,20,0,0,0-5.09-5.77,23.68,23.68,0,0,0-3.54-2.22,32.9,32.9,0,0,0-6-2.34,51,51,0,0,0-6.5-1.4,82.91,82.91,0,0,0-12.58-.87H114.41a.5.5,0,0,0-.5.5v55.8a.5.5,0,0,0,.5.5h26.64l.2-.5.19-.5H114.91v-54.8h28a82.35,82.35,0,0,1,12.34.84,49.18,49.18,0,0,1,6.38,1.37,30.89,30.89,0,0,1,6.1,2.39,21.42,21.42,0,0,1,3.19,2,19.24,19.24,0,0,1,5.23,6.18c2.23,4.06,3.35,9.22,3.35,15.43,0,8.66-2.67,15.3-7.94,19.71a26.69,26.69,0,0,1-10.84,5.09l-.22.58-.21.54a28.31,28.31,0,0,0,11.92-5.44c5.5-4.62,8.29-11.51,8.29-20.48C180.48,131.7,179.18,126.13,176.6,121.82Zm-21.46,81.29H145.4l-.38,1h10.12c19.83.11,29.47,9.85,29.47,29.8,0,8.52-2.78,15.22-8.27,19.9s-13.53,7.08-23.85,7.08H114.91V204.11h11.53l.38-1H114.41a.5.5,0,0,0-.5.5v57.78a.5.5,0,0,0,.5.5h38.08c10.56,0,18.8-2.46,24.5-7.32s8.62-11.83,8.62-20.66C185.61,213.58,175.36,203.22,155.14,203.11Zm0,0H145.4l-.38,1h10.12c19.83.11,29.47,9.85,29.47,29.8,0,8.52-2.78,15.22-8.27,19.9s-13.53,7.08-23.85,7.08H114.91V204.11h11.53l.38-1H114.41a.5.5,0,0,0-.5.5v57.78a.5.5,0,0,0,.5.5h38.08c10.56,0,18.8-2.46,24.5-7.32s8.62-11.83,8.62-20.66C185.61,213.58,175.36,203.22,155.14,203.11ZM114.41,166h26.64l.2-.5.19-.5H114.91v-54.8h28a82.35,82.35,0,0,1,12.34.84,49.18,49.18,0,0,1,6.38,1.37,30.89,30.89,0,0,1,6.1,2.39,21.42,21.42,0,0,1,3.19,2,19.24,19.24,0,0,1,5.23,6.18c2.23,4.06,3.35,9.22,3.35,15.43,0,8.66-2.67,15.3-7.94,19.71a26.69,26.69,0,0,1-10.84,5.09l-.22.58-.21.54a28.31,28.31,0,0,0,11.92-5.44c5.5-4.62,8.29-11.51,8.29-20.48,0-6.75-1.3-12.32-3.88-16.63a20,20,0,0,0-5.09-5.77,23.68,23.68,0,0,0-3.54-2.22,32.9,32.9,0,0,0-6-2.34,51,51,0,0,0-6.5-1.4,82.91,82.91,0,0,0-12.58-.87H114.41a.5.5,0,0,0-.5.5v55.8A.5.5,0,0,0,114.41,166Zm119,35.3c-6.51-8.75-15.85-14.91-27.78-18.33,10.51-4.23,18.63-10.68,24.16-19.18,5.77-8.88,8.69-19.72,8.69-32.23,0-21.71-8.23-38.5-24.47-49.92a77.62,77.62,0,0,0-18.37-9.36,112.62,112.62,0,0,0-15.83-4.42l-1-.2c-3.8-.76-7.8-1.38-11.95-1.86a206.5,206.5,0,0,0-23.94-1.31H56.29a.5.5,0,0,0-.5.5V306.1a.5.5,0,0,0,.5.5h97.86c29.34-.22,51.81-6.35,66.79-18.24s22.62-29.95,22.62-53.62C243.56,221.66,240.13,210.42,233.36,201.32ZM154.15,305.6H56.79V65.51h86.1a204.59,204.59,0,0,1,23.69,1.29q6.18.7,11.84,1.83l1.09.21a111.21,111.21,0,0,1,15.73,4.39,76.9,76.9,0,0,1,18.15,9.25c16,11.22,24,27.74,24,49.1,0,12.31-2.87,23-8.53,31.68s-14.09,15.21-25.09,19.35a.49.49,0,0,0-.32.49.5.5,0,0,0,.37.46c12.41,3.26,22.07,9.44,28.7,18.36s10,20,10,32.82c0,23.35-7.48,41.13-22.24,52.84S183.25,305.38,154.15,305.6Zm1-102.49H145.4l-.38,1h10.12c19.83.11,29.47,9.85,29.47,29.8,0,8.52-2.78,15.22-8.27,19.9s-13.53,7.08-23.85,7.08H114.91V204.11h11.53l.38-1H114.41a.5.5,0,0,0-.5.5v57.78a.5.5,0,0,0,.5.5h38.08c10.56,0,18.8-2.46,24.5-7.32s8.62-11.83,8.62-20.66C185.61,213.58,175.36,203.22,155.14,203.11ZM114.41,166h26.64l.2-.5.19-.5H114.91v-54.8h28a82.35,82.35,0,0,1,12.34.84,49.18,49.18,0,0,1,6.38,1.37,30.89,30.89,0,0,1,6.1,2.39,21.42,21.42,0,0,1,3.19,2,19.24,19.24,0,0,1,5.23,6.18c2.23,4.06,3.35,9.22,3.35,15.43,0,8.66-2.67,15.3-7.94,19.71a26.69,26.69,0,0,1-10.84,5.09l-.22.58-.21.54a28.31,28.31,0,0,0,11.92-5.44c5.5-4.62,8.29-11.51,8.29-20.48,0-6.75-1.3-12.32-3.88-16.63a20,20,0,0,0-5.09-5.77,23.68,23.68,0,0,0-3.54-2.22,32.9,32.9,0,0,0-6-2.34,51,51,0,0,0-6.5-1.4,82.91,82.91,0,0,0-12.58-.87H114.41a.5.5,0,0,0-.5.5v55.8A.5.5,0,0,0,114.41,166Zm62.19-44.2a20,20,0,0,0-5.09-5.77,23.68,23.68,0,0,0-3.54-2.22,32.9,32.9,0,0,0-6-2.34,51,51,0,0,0-6.5-1.4,82.91,82.91,0,0,0-12.58-.87H114.41a.5.5,0,0,0-.5.5v55.8a.5.5,0,0,0,.5.5h26.64l.2-.5.19-.5H114.91v-54.8h28a82.35,82.35,0,0,1,12.34.84,49.18,49.18,0,0,1,6.38,1.37,30.89,30.89,0,0,1,6.1,2.39,21.42,21.42,0,0,1,3.19,2,19.24,19.24,0,0,1,5.23,6.18c2.23,4.06,3.35,9.22,3.35,15.43,0,8.66-2.67,15.3-7.94,19.71a26.69,26.69,0,0,1-10.84,5.09l-.22.58-.21.54a28.31,28.31,0,0,0,11.92-5.44c5.5-4.62,8.29-11.51,8.29-20.48C180.48,131.7,179.18,126.13,176.6,121.82Zm-21.46,81.29H145.4l-.38,1h10.12c19.83.11,29.47,9.85,29.47,29.8,0,8.52-2.78,15.22-8.27,19.9s-13.53,7.08-23.85,7.08H114.91V204.11h11.53l.38-1H114.41a.5.5,0,0,0-.5.5v57.78a.5.5,0,0,0,.5.5h38.08c10.56,0,18.8-2.46,24.5-7.32s8.62-11.83,8.62-20.66C185.61,213.58,175.36,203.22,155.14,203.11Zm0,0H145.4l-.38,1h10.12c19.83.11,29.47,9.85,29.47,29.8,0,8.52-2.78,15.22-8.27,19.9s-13.53,7.08-23.85,7.08H114.91V204.11h11.53l.38-1H114.41a.5.5,0,0,0-.5.5v57.78a.5.5,0,0,0,.5.5h38.08c10.56,0,18.8-2.46,24.5-7.32s8.62-11.83,8.62-20.66C185.61,213.58,175.36,203.22,155.14,203.11Zm21.46-81.29a20,20,0,0,0-5.09-5.77,23.68,23.68,0,0,0-3.54-2.22,32.9,32.9,0,0,0-6-2.34,51,51,0,0,0-6.5-1.4,82.91,82.91,0,0,0-12.58-.87H114.41a.5.5,0,0,0-.5.5v55.8a.5.5,0,0,0,.5.5h26.64l.2-.5.19-.5H114.91v-54.8h28a82.35,82.35,0,0,1,12.34.84,49.18,49.18,0,0,1,6.38,1.37,30.89,30.89,0,0,1,6.1,2.39,21.42,21.42,0,0,1,3.19,2,19.24,19.24,0,0,1,5.23,6.18c2.23,4.06,3.35,9.22,3.35,15.43,0,8.66-2.67,15.3-7.94,19.71a26.69,26.69,0,0,1-10.84,5.09l-.22.58-.21.54a28.31,28.31,0,0,0,11.92-5.44c5.5-4.62,8.29-11.51,8.29-20.48C180.48,131.7,179.18,126.13,176.6,121.82Z"/><path class="cls-4" d="M176.13,123l-.16.42L160.7,163.25l-.22.58-.21.54-1.84,4.8-.18.49-.18.47-12.67,33-.38,1-.34.88-.16.46-.18.46-20.13,52.45-.18.46-.17.46-.62,1.61h-8.33V234.18l10.85-28.27.18-.46.16-.46.34-.88.38-1,12.43-32.38.18-.46.17-.46,1.45-3.79.2-.5.19-.5L158.73,120l.18-.47.15-.43,2.55-6.64a30.89,30.89,0,0,1,6.1,2.39,21.42,21.42,0,0,1,3.19,2A19.24,19.24,0,0,1,176.13,123Z"/></g></g></svg>